<mxfile host="app.diagrams.net" modified="2023-10-28T09:12:36.549Z" agent="Mozilla/5.0 (Macintosh; Intel Mac OS X 10_15_7) AppleWebKit/605.1.15 (KHTML, like Gecko) Version/16.6 Safari/605.1.15" etag="nkJJJFZGCv1oNtHG1gdi" version="22.0.8" type="device">
  <diagram name="Seite-1" id="LFxLyXKtYF81tslHSKhH">
    <mxGraphModel dx="894" dy="678" grid="1" gridSize="10" guides="1" tooltips="1" connect="1" arrows="1" fold="1" page="1" pageScale="1" pageWidth="827" pageHeight="1169" math="0" shadow="0">
      <root>
        <mxCell id="0" />
        <mxCell id="1" parent="0" />
        <mxCell id="0EQvA1iGpIuw67NvzZZh-1" value="&lt;font style=&quot;font-size: 20px;&quot;&gt;Preprossesing &amp;nbsp;pipeline&lt;/font&gt;" style="text;html=1;strokeColor=none;fillColor=none;align=center;verticalAlign=middle;whiteSpace=wrap;rounded=0;" vertex="1" parent="1">
          <mxGeometry x="170" y="180" width="270" height="30" as="geometry" />
        </mxCell>
        <mxCell id="0EQvA1iGpIuw67NvzZZh-4" style="edgeStyle=orthogonalEdgeStyle;rounded=0;orthogonalLoop=1;jettySize=auto;html=1;" edge="1" parent="1" source="0EQvA1iGpIuw67NvzZZh-2" target="0EQvA1iGpIuw67NvzZZh-3">
          <mxGeometry relative="1" as="geometry" />
        </mxCell>
        <mxCell id="0EQvA1iGpIuw67NvzZZh-2" value="3D CAD files of objects" style="ellipse;whiteSpace=wrap;html=1;" vertex="1" parent="1">
          <mxGeometry x="170" y="250" width="120" height="80" as="geometry" />
        </mxCell>
        <mxCell id="0EQvA1iGpIuw67NvzZZh-17" style="edgeStyle=orthogonalEdgeStyle;rounded=0;orthogonalLoop=1;jettySize=auto;html=1;" edge="1" parent="1" source="0EQvA1iGpIuw67NvzZZh-3" target="0EQvA1iGpIuw67NvzZZh-14">
          <mxGeometry relative="1" as="geometry" />
        </mxCell>
        <mxCell id="0EQvA1iGpIuw67NvzZZh-18" style="edgeStyle=orthogonalEdgeStyle;rounded=0;orthogonalLoop=1;jettySize=auto;html=1;" edge="1" parent="1" source="0EQvA1iGpIuw67NvzZZh-3" target="0EQvA1iGpIuw67NvzZZh-13">
          <mxGeometry relative="1" as="geometry" />
        </mxCell>
        <mxCell id="0EQvA1iGpIuw67NvzZZh-28" style="edgeStyle=orthogonalEdgeStyle;rounded=0;orthogonalLoop=1;jettySize=auto;html=1;" edge="1" parent="1" source="0EQvA1iGpIuw67NvzZZh-3" target="0EQvA1iGpIuw67NvzZZh-27">
          <mxGeometry relative="1" as="geometry" />
        </mxCell>
        <mxCell id="0EQvA1iGpIuw67NvzZZh-32" style="edgeStyle=orthogonalEdgeStyle;rounded=0;orthogonalLoop=1;jettySize=auto;html=1;" edge="1" parent="1" source="0EQvA1iGpIuw67NvzZZh-3" target="0EQvA1iGpIuw67NvzZZh-31">
          <mxGeometry relative="1" as="geometry" />
        </mxCell>
        <mxCell id="0EQvA1iGpIuw67NvzZZh-3" value="Load 3D CAD file into python with open3d package" style="rounded=1;whiteSpace=wrap;html=1;" vertex="1" parent="1">
          <mxGeometry x="125" y="350" width="210" height="50" as="geometry" />
        </mxCell>
        <mxCell id="0EQvA1iGpIuw67NvzZZh-12" style="edgeStyle=orthogonalEdgeStyle;rounded=0;orthogonalLoop=1;jettySize=auto;html=1;" edge="1" parent="1" source="0EQvA1iGpIuw67NvzZZh-5" target="0EQvA1iGpIuw67NvzZZh-7">
          <mxGeometry relative="1" as="geometry" />
        </mxCell>
        <mxCell id="0EQvA1iGpIuw67NvzZZh-5" value="Create 2D screenshots" style="rounded=1;whiteSpace=wrap;html=1;" vertex="1" parent="1">
          <mxGeometry x="110" y="585" width="240" height="50" as="geometry" />
        </mxCell>
        <mxCell id="0EQvA1iGpIuw67NvzZZh-49" style="edgeStyle=orthogonalEdgeStyle;rounded=0;orthogonalLoop=1;jettySize=auto;html=1;entryX=0.5;entryY=0;entryDx=0;entryDy=0;" edge="1" parent="1" source="0EQvA1iGpIuw67NvzZZh-7" target="0EQvA1iGpIuw67NvzZZh-11">
          <mxGeometry relative="1" as="geometry" />
        </mxCell>
        <mxCell id="0EQvA1iGpIuw67NvzZZh-7" value="2D screenshots of object" style="ellipse;whiteSpace=wrap;html=1;" vertex="1" parent="1">
          <mxGeometry x="150" y="660" width="160" height="80" as="geometry" />
        </mxCell>
        <mxCell id="0EQvA1iGpIuw67NvzZZh-37" style="edgeStyle=orthogonalEdgeStyle;rounded=0;orthogonalLoop=1;jettySize=auto;html=1;" edge="1" parent="1" source="0EQvA1iGpIuw67NvzZZh-11" target="0EQvA1iGpIuw67NvzZZh-36">
          <mxGeometry relative="1" as="geometry" />
        </mxCell>
        <mxCell id="0EQvA1iGpIuw67NvzZZh-50" style="edgeStyle=orthogonalEdgeStyle;rounded=0;orthogonalLoop=1;jettySize=auto;html=1;" edge="1" parent="1" source="0EQvA1iGpIuw67NvzZZh-11" target="0EQvA1iGpIuw67NvzZZh-38">
          <mxGeometry relative="1" as="geometry">
            <Array as="points">
              <mxPoint x="230" y="860" />
              <mxPoint x="65" y="860" />
            </Array>
          </mxGeometry>
        </mxCell>
        <mxCell id="0EQvA1iGpIuw67NvzZZh-51" style="edgeStyle=orthogonalEdgeStyle;rounded=0;orthogonalLoop=1;jettySize=auto;html=1;" edge="1" parent="1" source="0EQvA1iGpIuw67NvzZZh-11" target="0EQvA1iGpIuw67NvzZZh-41">
          <mxGeometry relative="1" as="geometry" />
        </mxCell>
        <mxCell id="0EQvA1iGpIuw67NvzZZh-52" style="edgeStyle=orthogonalEdgeStyle;rounded=0;orthogonalLoop=1;jettySize=auto;html=1;" edge="1" parent="1" source="0EQvA1iGpIuw67NvzZZh-11" target="0EQvA1iGpIuw67NvzZZh-42">
          <mxGeometry relative="1" as="geometry">
            <Array as="points">
              <mxPoint x="230" y="860" />
              <mxPoint x="395" y="860" />
            </Array>
          </mxGeometry>
        </mxCell>
        <mxCell id="0EQvA1iGpIuw67NvzZZh-11" value="Extract 2D bounding box" style="rounded=1;whiteSpace=wrap;html=1;" vertex="1" parent="1">
          <mxGeometry x="170" y="780" width="120" height="60" as="geometry" />
        </mxCell>
        <mxCell id="0EQvA1iGpIuw67NvzZZh-19" style="edgeStyle=orthogonalEdgeStyle;rounded=0;orthogonalLoop=1;jettySize=auto;html=1;" edge="1" parent="1" source="0EQvA1iGpIuw67NvzZZh-13" target="0EQvA1iGpIuw67NvzZZh-5">
          <mxGeometry relative="1" as="geometry" />
        </mxCell>
        <mxCell id="0EQvA1iGpIuw67NvzZZh-13" value="Rotate object" style="rounded=1;whiteSpace=wrap;html=1;" vertex="1" parent="1">
          <mxGeometry x="30" y="460" width="120" height="60" as="geometry" />
        </mxCell>
        <mxCell id="0EQvA1iGpIuw67NvzZZh-20" style="edgeStyle=orthogonalEdgeStyle;rounded=0;orthogonalLoop=1;jettySize=auto;html=1;entryX=0.5;entryY=0;entryDx=0;entryDy=0;" edge="1" parent="1" source="0EQvA1iGpIuw67NvzZZh-14" target="0EQvA1iGpIuw67NvzZZh-5">
          <mxGeometry relative="1" as="geometry" />
        </mxCell>
        <mxCell id="0EQvA1iGpIuw67NvzZZh-14" value="Zoom in and out" style="rounded=1;whiteSpace=wrap;html=1;" vertex="1" parent="1">
          <mxGeometry x="170" y="460" width="120" height="60" as="geometry" />
        </mxCell>
        <mxCell id="0EQvA1iGpIuw67NvzZZh-23" value="Size information of object" style="ellipse;whiteSpace=wrap;html=1;" vertex="1" parent="1">
          <mxGeometry x="550" y="335" width="120" height="80" as="geometry" />
        </mxCell>
        <mxCell id="0EQvA1iGpIuw67NvzZZh-29" style="edgeStyle=orthogonalEdgeStyle;rounded=0;orthogonalLoop=1;jettySize=auto;html=1;entryX=0.5;entryY=0;entryDx=0;entryDy=0;" edge="1" parent="1" source="0EQvA1iGpIuw67NvzZZh-27" target="0EQvA1iGpIuw67NvzZZh-5">
          <mxGeometry relative="1" as="geometry" />
        </mxCell>
        <mxCell id="0EQvA1iGpIuw67NvzZZh-27" value="Lightning, Material, ...?" style="rounded=1;whiteSpace=wrap;html=1;" vertex="1" parent="1">
          <mxGeometry x="310" y="460" width="120" height="60" as="geometry" />
        </mxCell>
        <mxCell id="0EQvA1iGpIuw67NvzZZh-33" style="edgeStyle=orthogonalEdgeStyle;rounded=0;orthogonalLoop=1;jettySize=auto;html=1;" edge="1" parent="1" source="0EQvA1iGpIuw67NvzZZh-31" target="0EQvA1iGpIuw67NvzZZh-23">
          <mxGeometry relative="1" as="geometry" />
        </mxCell>
        <mxCell id="0EQvA1iGpIuw67NvzZZh-31" value="Extract 3D bounding box" style="rounded=1;whiteSpace=wrap;html=1;" vertex="1" parent="1">
          <mxGeometry x="410" y="345" width="120" height="60" as="geometry" />
        </mxCell>
        <mxCell id="0EQvA1iGpIuw67NvzZZh-58" style="edgeStyle=orthogonalEdgeStyle;rounded=0;orthogonalLoop=1;jettySize=auto;html=1;entryX=0.5;entryY=0;entryDx=0;entryDy=0;" edge="1" parent="1" source="0EQvA1iGpIuw67NvzZZh-36" target="0EQvA1iGpIuw67NvzZZh-56">
          <mxGeometry relative="1" as="geometry">
            <Array as="points">
              <mxPoint x="560" y="1080" />
              <mxPoint x="360" y="1080" />
            </Array>
          </mxGeometry>
        </mxCell>
        <mxCell id="0EQvA1iGpIuw67NvzZZh-36" value="labels: class + coordinates of bounding box" style="ellipse;whiteSpace=wrap;html=1;" vertex="1" parent="1">
          <mxGeometry x="500" y="770" width="120" height="80" as="geometry" />
        </mxCell>
        <mxCell id="0EQvA1iGpIuw67NvzZZh-53" style="edgeStyle=orthogonalEdgeStyle;rounded=0;orthogonalLoop=1;jettySize=auto;html=1;" edge="1" parent="1" source="0EQvA1iGpIuw67NvzZZh-38" target="0EQvA1iGpIuw67NvzZZh-39">
          <mxGeometry relative="1" as="geometry">
            <Array as="points">
              <mxPoint x="65" y="970" />
              <mxPoint x="230" y="970" />
            </Array>
          </mxGeometry>
        </mxCell>
        <mxCell id="0EQvA1iGpIuw67NvzZZh-38" value="Move object&amp;nbsp;" style="rounded=1;whiteSpace=wrap;html=1;" vertex="1" parent="1">
          <mxGeometry x="5" y="880" width="120" height="60" as="geometry" />
        </mxCell>
        <mxCell id="0EQvA1iGpIuw67NvzZZh-57" style="edgeStyle=orthogonalEdgeStyle;rounded=0;orthogonalLoop=1;jettySize=auto;html=1;entryX=0.5;entryY=0;entryDx=0;entryDy=0;" edge="1" parent="1" source="0EQvA1iGpIuw67NvzZZh-39" target="0EQvA1iGpIuw67NvzZZh-56">
          <mxGeometry relative="1" as="geometry">
            <Array as="points">
              <mxPoint x="230" y="1080" />
              <mxPoint x="360" y="1080" />
            </Array>
          </mxGeometry>
        </mxCell>
        <mxCell id="0EQvA1iGpIuw67NvzZZh-39" value="Augmented training images" style="ellipse;whiteSpace=wrap;html=1;" vertex="1" parent="1">
          <mxGeometry x="170" y="990" width="120" height="80" as="geometry" />
        </mxCell>
        <mxCell id="0EQvA1iGpIuw67NvzZZh-54" style="edgeStyle=orthogonalEdgeStyle;rounded=0;orthogonalLoop=1;jettySize=auto;html=1;entryX=0.5;entryY=0;entryDx=0;entryDy=0;" edge="1" parent="1" source="0EQvA1iGpIuw67NvzZZh-41" target="0EQvA1iGpIuw67NvzZZh-39">
          <mxGeometry relative="1" as="geometry" />
        </mxCell>
        <mxCell id="0EQvA1iGpIuw67NvzZZh-41" value="Image augmentation: Exposure, Contrast, ..." style="rounded=1;whiteSpace=wrap;html=1;" vertex="1" parent="1">
          <mxGeometry x="145" y="880" width="170" height="60" as="geometry" />
        </mxCell>
        <mxCell id="0EQvA1iGpIuw67NvzZZh-55" style="edgeStyle=orthogonalEdgeStyle;rounded=0;orthogonalLoop=1;jettySize=auto;html=1;" edge="1" parent="1" source="0EQvA1iGpIuw67NvzZZh-42" target="0EQvA1iGpIuw67NvzZZh-39">
          <mxGeometry relative="1" as="geometry">
            <Array as="points">
              <mxPoint x="395" y="970" />
              <mxPoint x="230" y="970" />
            </Array>
          </mxGeometry>
        </mxCell>
        <mxCell id="0EQvA1iGpIuw67NvzZZh-42" value="Replace background with real world?" style="rounded=1;whiteSpace=wrap;html=1;" vertex="1" parent="1">
          <mxGeometry x="335" y="880" width="120" height="60" as="geometry" />
        </mxCell>
        <mxCell id="0EQvA1iGpIuw67NvzZZh-56" value="Training data" style="ellipse;whiteSpace=wrap;html=1;" vertex="1" parent="1">
          <mxGeometry x="300" y="1110" width="120" height="80" as="geometry" />
        </mxCell>
      </root>
    </mxGraphModel>
  </diagram>
</mxfile>
